<svg width="117" height="23" viewBox="0 0 117 23" fill="none" xmlns="http://www.w3.org/2000/svg">
<path d="M8.1287 -9.91821e-05H13.1527L21.2807 22.3999H16.5927L15.2487 18.6879H6.0327L4.6887 22.3999H0.000703216L8.1287 -9.91821e-05ZM7.6487 14.2719H13.6327L10.6247 6.0639L7.6487 14.2719ZM23.9307 22.3999V-9.91821e-05H28.3467V22.3999H23.9307ZM39.972 22.3999L31.844 -9.91821e-05H36.532L42.82 17.2959L49.108 -9.91821e-05H53.78L45.652 22.3999H39.972ZM56.707 22.3999V-9.91821e-05H61.123V22.3999H56.707ZM65.0057 22.3999V-9.91821e-05H73.3417C74.547 -9.91821e-05 75.6404 0.250568 76.6217 0.751902C77.603 1.24257 78.3764 1.94657 78.9417 2.8639C79.5177 3.78123 79.8057 4.85857 79.8057 6.0959C79.8057 6.59723 79.7364 7.11457 79.5977 7.6479C79.4697 8.18123 79.2457 8.6719 78.9257 9.1199C78.6164 9.5679 78.1897 9.90924 77.6457 10.1439C78.3497 10.3146 78.915 10.6346 79.3417 11.1039C79.7684 11.5626 80.0937 12.0959 80.3177 12.7039C80.5417 13.3012 80.691 13.9146 80.7657 14.5439C80.8404 15.1732 80.8777 15.7439 80.8777 16.2559C80.8777 17.4079 80.579 18.4479 79.9817 19.3759C79.3844 20.3039 78.579 21.0399 77.5657 21.5839C76.563 22.1279 75.4537 22.3999 74.2377 22.3999H65.0057ZM69.4217 18.6399H73.7737C74.3604 18.6399 74.8937 18.5012 75.3737 18.2239C75.8537 17.9359 76.2377 17.5466 76.5257 17.0559C76.8137 16.5546 76.9577 15.9892 76.9577 15.3599C76.9577 14.8266 76.8137 14.3199 76.5257 13.8399C76.2377 13.3599 75.8537 12.9706 75.3737 12.6719C74.8937 12.3626 74.3604 12.2079 73.7737 12.2079H69.4217V18.6399ZM69.4217 8.5279H72.8297C73.5337 8.5279 74.1364 8.29857 74.6377 7.8399C75.139 7.38123 75.3897 6.78923 75.3897 6.0639C75.3897 5.31723 75.139 4.7519 74.6377 4.3679C74.1364 3.97323 73.5337 3.7759 72.8297 3.7759H69.4217V8.5279ZM82.9095 22.3999V-9.91821e-05H97.0855V4.4159H87.3255V8.1919H94.9415V12.6079H87.3255V17.9839H97.0855V22.3999H82.9095ZM100.188 22.3999V-9.91821e-05H109.084C110.3 -9.91821e-05 111.399 0.309235 112.38 0.927902C113.372 1.5359 114.156 2.35723 114.732 3.3919C115.319 4.4159 115.612 5.5519 115.612 6.7999C115.612 7.78124 115.442 8.69324 115.1 9.5359C114.759 10.3679 114.279 11.0986 113.66 11.7279C113.042 12.3572 112.322 12.8479 111.5 13.1999L116.828 22.3999H111.74L106.636 13.5999H104.604V22.3999H100.188ZM104.604 9.1839H108.556C109.036 9.1839 109.474 9.06657 109.868 8.8319C110.274 8.58657 110.594 8.26123 110.828 7.8559C111.074 7.4399 111.196 6.98123 111.196 6.4799C111.196 5.98924 111.074 5.54124 110.828 5.1359C110.594 4.7199 110.274 4.38924 109.868 4.1439C109.474 3.89857 109.036 3.7759 108.556 3.7759H104.604V9.1839Z" fill="white"/>
</svg>
