<svg width="88" height="75" viewBox="0 0 88 75" fill="none" xmlns="http://www.w3.org/2000/svg">
<path d="M48.5747 51.7505C52.9686 51.2395 57.38 51.5649 61.7827 51.4601C62.1671 51.4513 62.6716 51.6566 62.8965 51.174C63.1127 50.7088 62.641 50.4271 62.4379 50.0973C61.8308 49.1146 60.5925 48.4878 60.7585 47.077C63.5648 47.0661 66.371 47.0727 69.1773 47.0355C69.9242 47.0246 70.3369 47.2408 70.5946 48.0008C70.8087 48.632 71.2476 49.2129 71.6822 49.7348C72.167 50.3179 72.6671 51.0408 73.5953 50.2393C73.9512 49.9314 74.2876 50.1214 74.3531 50.6236C71.9181 51.7418 69.328 52.065 66.6986 51.9296C61.0882 51.6391 55.4823 52.1392 49.8741 51.9755C49.4286 51.9624 48.9503 52.1502 48.5703 51.7527L48.5747 51.7505Z" fill="#71B1B1"/>
<path d="M72.6807 18.6626C72.6807 19.7677 72.685 20.8749 72.6763 21.9799C72.6719 22.3818 72.7528 22.9256 72.1806 22.9605C71.1716 23.0238 70.1518 23.0238 69.1406 22.9605C68.4702 22.919 68.6121 22.3141 68.6078 21.8817C68.5925 20.27 68.6078 18.6561 68.5968 17.0444C68.5925 16.0922 68.4287 15.3519 67.3783 14.8168C66.2776 14.2534 66.8388 12.978 66.9196 12.0564C66.9917 11.2397 67.8849 11.3904 68.4986 11.4581C71.532 11.7944 72.6741 13.096 72.6785 16.1752C72.6785 17.0051 72.6785 17.8328 72.6785 18.6626H72.6807Z" fill="white"/>
<path d="M64.9578 17.335C64.9578 18.855 64.9338 20.3771 64.9688 21.8971C64.9862 22.6309 64.7809 22.9519 63.9664 22.9869C61.0662 23.1179 61.0684 23.1485 61.0727 20.2024C61.0749 17.8067 61.1164 15.4088 61.0531 13.0131C61.0247 11.978 61.2474 11.5259 62.4093 11.5761C65.4317 11.7028 64.9011 11.1874 64.9556 14.1531C64.9753 15.2123 64.9578 16.2737 64.9578 17.3328V17.335Z" fill="white"/>
<path d="M16.1265 51.2264C12.4641 50.3376 9.48097 48.3175 7.06998 45.5069C0.208258 37.5074 1.21939 27.4943 7.91513 20.0386C8.1903 19.7328 8.47639 19.4206 8.91316 19.3354C9.26913 19.1388 9.57051 19.2502 9.70372 19.5931C10.4441 21.504 10.9529 23.4367 10.0684 25.4524C9.38707 27.1449 8.44582 28.7304 8.06146 30.5452C6.76643 36.6491 9.8435 42.7028 15.7159 45.5571C16.334 45.8585 16.9585 46.1424 17.5809 46.4328C17.6814 46.6207 17.9151 46.6862 17.9959 46.8936C17.8583 48.003 18.0854 49.0578 18.4174 50.1127C18.6205 50.7591 18.7318 51.4557 17.6596 51.4033C17.1616 51.2286 16.62 51.4448 16.1265 51.2286V51.2264Z" fill="#71B1B1"/>
<path d="M52.7168 47.0073C53.5947 46.6054 54.5294 46.7823 55.4357 46.778C59.7314 46.7627 64.0249 46.8063 68.3205 46.7998C74.3742 46.7911 78.7201 41.3139 77.3639 35.4306C76.9315 33.5568 76.7481 33.4891 74.9966 34.3998C74.5686 34.6225 74.2192 35.0702 73.5029 34.9698C74.2366 31.3118 74.7411 27.6407 74.6712 23.9696C75.1779 23.7076 75.3635 24.0613 75.5863 24.2513C78.0038 26.326 80.5 28.2915 83.315 29.8158C83.5814 29.96 83.9942 30.0495 83.8981 30.471C83.826 30.7789 83.4526 30.7418 83.2102 30.8444C82.9568 30.9514 82.6882 31.0366 82.4196 31.0978C81.4325 31.3249 81.225 31.7114 81.7098 32.7313C84.8524 39.3222 81.2687 47.8175 74.3589 50.6194C74.2454 50.5408 74.1209 50.4403 73.9855 50.4665C72.0834 50.8203 71.6771 50.7788 70.8145 49.1081C70.0742 47.6733 69.0565 47.3458 67.5846 47.4047C65.2369 47.4986 62.8827 47.4178 60.5307 47.444C58.4757 47.5117 56.425 47.4768 54.3722 47.4659C53.7891 47.4637 53.1689 47.5139 52.719 47.0051L52.7168 47.0073Z" fill="#71B1B1"/>
<path d="M34.9731 0.789932C43.1299 -1.18429 50.3781 0.519129 56.6437 6.15788C57.1918 6.65143 57.7138 7.17338 58.2313 7.69969C59.3473 8.8353 59.4739 10.1806 58.5676 11.1393C57.6133 12.1504 56.1763 12.1067 55.0123 10.9689C52.7542 8.75887 50.3257 6.84362 47.2858 5.76915C43.5033 4.43044 39.6968 4.47412 35.8423 5.29307C36.5586 3.59839 36.1546 2.11772 34.9688 0.789932H34.9731Z" fill="#71B1B1"/>
<path d="M15.0059 15.732C15.0801 15.6796 15.1478 15.5857 15.2264 15.577C18.6071 15.2472 20.4109 13.0677 21.8217 10.2374C22.787 8.30032 24.2371 6.66897 26.1261 5.50497C26.7223 5.20359 27.1373 5.55083 27.3884 5.9876C28.1047 7.23896 28.6114 8.55146 28.12 10.0321C26.4013 12.4693 24.6979 14.9087 23.5885 17.7128C23.298 18.4488 22.6407 19.0078 21.8676 19.2153C20.5485 19.5691 19.2098 19.8967 17.8252 19.901C17.3797 19.521 17.3098 18.9532 17.1046 18.4553C16.6503 17.3568 16.1611 16.2889 15.0059 15.7298V15.732Z" fill="#71B1B1"/>
<path d="M17.8131 46.7865C17.7345 46.6686 17.6581 46.5485 17.5795 46.4305C21.0562 46.9983 24.5635 46.8127 28.062 46.8302C32.48 46.8498 36.898 46.8346 41.3137 46.8542C43.0783 46.8629 44.0458 47.6011 44.2227 48.9857C44.4454 50.7415 43.4059 51.923 41.4579 51.9645C39.8964 51.9972 38.3306 51.8269 36.7669 51.8312C31.886 51.8465 27.005 51.9732 22.1241 51.9055C20.1215 51.8771 18.0686 51.9404 16.125 51.2263C16.6884 51.2198 17.2541 51.2132 17.8175 51.2067C21.7528 50.9162 25.6969 51.3421 29.6344 51.0691C30.4643 51.0123 31.0583 50.9468 31.0146 49.8636C30.9491 48.2497 30.6696 47.6666 29.5471 47.7278C26.4481 47.8916 23.3776 47.3434 20.2853 47.4395C19.4095 47.4657 18.5163 47.4613 17.8131 46.7865Z" fill="#71B1B1"/>
<path d="M52.716 47.0072C55.3978 47.029 58.0796 47.0531 60.7592 47.0749C61.4668 48.1428 62.2901 49.1343 62.9562 50.2262C63.4847 51.0932 63.227 51.5344 62.3075 51.5999C57.9092 51.9143 53.4978 51.5693 49.0995 51.8772C48.9117 51.8903 48.7348 51.8554 48.5754 51.7506C47.8503 51.0867 48.2827 50.3682 48.6038 49.7807C49.4817 48.1734 50.8663 47.2234 52.7138 47.0072H52.716Z" fill="#71B1B1"/>
<path d="M28.1169 10.0343C27.9051 8.97735 27.7435 7.90507 27.4618 6.86555C27.2849 6.21257 26.9507 5.58144 26.123 5.505C28.7131 3.2578 31.5172 1.41243 34.9721 0.790029C35.5596 0.75072 35.9199 1.04117 36.0618 1.58714C36.2191 2.19426 36.2234 2.87126 36.5008 3.41067C36.9856 4.34537 36.6318 4.86294 35.8456 5.29098C32.9389 6.33487 30.4362 8.03829 28.1147 10.0322L28.1169 10.0343Z" fill="#71B1B1"/>
<path d="M15.0051 15.7319C15.8175 15.6599 16.3613 15.9591 16.6845 16.7562C17.1038 17.7935 17.7786 18.7326 17.8245 19.9031C14.8741 21.244 12.2884 23.0894 10.0674 25.448C10.146 23.5895 10.0936 21.7463 9.52142 19.9446C9.40786 19.5843 9.27026 19.3834 8.91211 19.331C10.7269 17.7651 12.6138 16.3238 15.0051 15.7298V15.7319Z" fill="#71B1B1"/>
<path d="M17.8142 46.7866C21.9723 47.0421 26.1238 47.5597 30.3016 47.1732C30.6859 47.1382 30.9327 47.2168 31.0681 47.5663C31.5071 48.6997 31.3214 49.9227 31.5464 51.091C31.6163 51.4492 31.2122 51.4579 30.9414 51.4601C26.6829 51.5125 22.4222 51.6326 18.1636 51.4142C18.0457 51.4077 17.9321 51.2788 17.8186 51.2068C18.6703 51.0626 18.1833 50.521 18.0763 50.1803C17.729 49.0622 17.2027 47.9746 17.8142 46.7888V46.7866Z" fill="#71B1B1"/>
<path d="M5.12336 63.4626C6.59529 63.4626 8.00825 64.1483 8.77479 65.1966V59.892H11.6378V74.8165H8.77479V73.1633C8.10871 74.1919 6.85953 74.9978 5.1037 74.9978C2.2603 74.9978 0 72.6785 0 69.1887C0 65.6989 2.25813 63.4604 5.12336 63.4604V63.4626ZM5.83093 65.9435C4.31751 65.9435 2.88708 67.0725 2.88708 69.1909C2.88708 71.3092 4.3197 72.5191 5.83093 72.5191C7.34217 72.5191 8.79663 71.3485 8.79663 69.2324C8.79663 67.1162 7.38367 65.9456 5.83093 65.9456V65.9435Z" fill="white"/>
<path d="M18.7793 63.4628C20.5744 63.4628 21.8039 64.3101 22.47 65.2382V63.644H25.3134V74.8167H22.47V73.1832C21.8039 74.1506 20.5329 74.998 18.7596 74.998C15.9359 74.998 13.6777 72.6787 13.6777 69.1889C13.6777 65.699 15.9359 63.4606 18.7814 63.4606L18.7793 63.4628ZM19.5065 65.9436C17.9931 65.9436 16.5626 67.0727 16.5626 69.191C16.5626 71.3094 17.9952 72.5193 19.5065 72.5193C21.0177 72.5193 22.4722 71.3487 22.4722 69.2325C22.4722 67.1164 21.0592 65.9458 19.5065 65.9458V65.9436Z" fill="white"/>
<path d="M28.5197 65.9654H27.1875V63.6461H28.5197V60.8835H31.3631V63.6461H33.8636V65.9654H31.3631V71.3705C31.3631 72.1174 31.6666 72.4406 32.5533 72.4406H33.8636V74.821H32.0881C29.9501 74.821 28.5175 73.9125 28.5175 71.353V65.9676L28.5197 65.9654Z" fill="white"/>
<path d="M40.2832 63.4628C42.0783 63.4628 43.3078 64.3101 43.9739 65.2382V63.644H46.8173V74.8167H43.9739V73.1832C43.3078 74.1506 42.0368 74.998 40.2635 74.998C37.4398 74.998 35.1816 72.6787 35.1816 69.1889C35.1816 65.699 37.4398 63.4606 40.2853 63.4606L40.2832 63.4628ZM41.0082 65.9436C39.4948 65.9436 38.0643 67.0727 38.0643 69.191C38.0643 71.3094 39.497 72.5193 41.0082 72.5193C42.5194 72.5193 43.9739 71.3487 43.9739 69.2325C43.9739 67.1164 42.5609 65.9458 41.0082 65.9458V65.9436Z" fill="white"/>
<path d="M49.5781 59.8942H52.4019V65.0372C53.1269 64.0894 54.3783 63.4844 55.8699 63.4844C58.39 63.4844 60.2267 65.1791 60.2267 68.2649V74.8209H57.4029V68.6493C57.4029 66.8541 56.4136 65.8867 54.922 65.8867C53.4305 65.8867 52.4019 66.8541 52.4019 68.6493V74.8209H49.5781V59.8963V59.8942Z" fill="white"/>
<path d="M73.461 74.8189H70.6176V73.4081C69.9123 74.3559 68.6806 74.9609 67.2894 74.9609C64.6884 74.9609 62.8125 73.2662 62.8125 70.2V63.644H65.6362V69.796C65.6362 71.5911 66.6255 72.5586 68.1171 72.5586C69.6087 72.5586 70.6176 71.5911 70.6176 69.796V63.644H73.461V74.8167V74.8189Z" fill="white"/>
<path d="M82.7567 63.4626C85.6197 63.4626 87.8604 65.7011 87.8604 69.1909C87.8604 72.6807 85.6219 75 82.7567 75C81.0008 75 79.7517 74.1941 79.0659 73.2245V74.8187H76.2422V59.8942H79.0659V65.2796C79.7517 64.251 81.062 63.4648 82.7567 63.4648V63.4626ZM82.012 65.9435C80.4985 65.9435 79.0681 67.114 79.0681 69.2302C79.0681 71.3464 80.5007 72.5169 82.012 72.5169C83.5232 72.5169 84.9777 71.3071 84.9777 69.1887C84.9777 67.0704 83.545 65.9413 82.012 65.9413V65.9435Z" fill="white"/>
</svg>
