<svg width="163" height="53" viewBox="0 0 163 53" fill="none" xmlns="http://www.w3.org/2000/svg">
<g clip-path="url(#clip0_2121_1243)">
<path d="M17.3404 22.8581C17.3404 29.3528 13.1746 33.2924 6.41068 33.2924H0V12.3345H6.41068C13.1746 12.3345 17.3404 16.3633 17.3404 22.8581ZM6.40802 31.0373C11.7852 31.0373 14.5907 27.9712 14.5907 22.8581C14.5907 17.7449 11.7852 14.5598 6.40802 14.5598H2.68595V31.0373H6.40802Z" fill="white"/>
<path d="M27.9006 16.5259C30.9537 16.5259 33.051 18.0656 34.0068 19.7545V16.7923H36.7611V33.0258H34.0068V30.0051C33.0188 31.7525 30.8945 33.2922 27.8682 33.2922C23.4986 33.2922 20.1143 29.8851 20.1143 24.8505C20.1143 19.8158 23.4986 16.5259 27.8979 16.5259H27.9006ZM28.439 18.8647C25.4452 18.8647 22.9008 21.0278 22.9008 24.8478C22.9008 28.6678 25.4452 30.9215 28.439 30.9215C31.4329 30.9215 34.0068 28.6997 34.0068 24.8797C34.0068 21.0597 31.4329 18.8674 28.439 18.8674V18.8647Z" fill="white"/>
<path d="M41.7983 18.8424H39.5367V16.5513H41.7983V12.3345H44.6955V16.5513H49.2473V18.8424H44.6955V28.7102C44.6955 30.3585 45.3339 30.9409 47.1146 30.9409H49.2473V33.2924H46.6365C43.5476 33.2924 41.7983 32.0699 41.7983 28.7102V18.8424Z" fill="white"/>
<path d="M59.1149 16.5259C62.168 16.5259 64.2653 18.0656 65.2211 19.7545V16.7923H67.9754V33.0258H65.2211V30.0051C64.233 31.7525 62.1088 33.2922 59.0825 33.2922C54.7128 33.2922 51.3286 29.8851 51.3286 24.8505C51.3286 19.8158 54.7128 16.5259 59.1122 16.5259H59.1149ZM59.6533 18.8647C56.6595 18.8647 54.1151 21.0278 54.1151 24.8478C54.1151 28.6678 56.6595 30.9215 59.6533 30.9215C62.6472 30.9215 65.2211 28.6997 65.2211 24.8797C65.2211 21.0597 62.6472 18.8674 59.6533 18.8674V18.8647Z" fill="white"/>
<path d="M88.7815 12.3345V33.2924H86.017L74.8992 16.6275V33.2924H72.1347V12.3345H74.8992L86.017 28.9696V12.3345H88.7815Z" fill="white"/>
<path d="M100.454 33.2922C95.7973 33.2922 92.249 30.0343 92.249 24.8797C92.249 19.7251 95.9161 16.5259 100.572 16.5259C105.229 16.5259 108.896 19.7545 108.896 24.8797C108.896 30.0051 105.14 33.2922 100.451 33.2922H100.454ZM100.454 30.9215C103.31 30.9215 106.104 28.9954 106.104 24.8797C106.104 20.7641 103.369 18.8674 100.545 18.8674C97.7213 18.8674 95.0461 20.7934 95.0461 24.8797C95.0461 28.9661 97.5998 30.9215 100.454 30.9215Z" fill="white"/>
<path d="M119.486 16.3987C122.06 16.3987 124.427 17.7113 125.564 19.5928V10.9368H128.318V33.0235H125.564V29.9504C124.575 31.7701 122.451 33.292 119.456 33.292C115.054 33.292 111.671 29.8591 111.671 24.7863C111.671 19.7135 115.056 16.3987 119.489 16.3987H119.486ZM119.995 18.7554C117.001 18.7554 114.456 20.9347 114.456 24.7835C114.456 28.6325 117.001 30.9032 119.995 30.9032C122.989 30.9032 125.564 28.6647 125.564 24.8159C125.564 20.9669 122.989 18.758 119.995 18.758V18.7554Z" fill="white"/>
<path d="M139.884 33.2895C135.222 33.2895 131.786 30.0322 131.786 24.8784C131.786 19.7246 135.101 16.5259 139.884 16.5259C144.666 16.5259 147.738 19.8419 147.738 24.2871C147.738 24.8784 147.709 25.3524 147.65 25.9171H134.564C134.773 29.2039 137.102 31.0123 139.884 31.0123C142.334 31.0123 143.887 29.7685 144.486 28.0213H147.414C146.578 30.983 143.948 33.2922 139.886 33.2922L139.884 33.2895ZM134.596 23.7225H144.934C144.963 20.553 142.572 18.8058 139.765 18.8058C137.105 18.8058 134.895 20.553 134.596 23.7225Z" fill="white"/>
<path d="M157.111 33.2895C153.342 33.2895 150.692 31.2175 150.513 28.2557H153.282C153.429 29.8245 154.813 31.0096 157.079 31.0096C159.201 31.0096 160.377 29.9443 160.377 28.6099C160.377 24.9955 150.834 27.0998 150.834 21.0563C150.834 18.5687 153.162 16.5259 156.753 16.5259C160.345 16.5259 162.673 18.4515 162.851 21.621H160.17C160.051 19.991 158.815 18.8084 156.666 18.8084C154.693 18.8084 153.515 19.7566 153.515 21.0591C153.515 24.9103 162.879 22.8063 162.999 28.6126C162.999 31.2786 160.673 33.2922 157.109 33.2922L157.111 33.2895Z" fill="white"/>
<path d="M87.5576 0.576904C87.7456 0.720311 87.9552 0.842071 88.119 1.00712C90.2386 3.13387 92.353 5.26604 94.4699 7.39548C94.7037 7.62818 94.8487 7.88253 94.7492 8.22616C94.5988 8.73215 94.0105 8.92967 93.5914 8.61039C93.5216 8.55626 93.4597 8.49133 93.3953 8.42909C91.7055 6.72716 90.0157 5.02792 88.3286 3.32328C88.2775 3.27187 88.2614 3.18798 88.2265 3.12034C88.1942 3.14469 88.1647 3.16905 88.1324 3.1934C88.1324 3.27458 88.1324 3.35305 88.1324 3.43421C88.1324 9.21919 88.1297 15.0042 88.1378 20.7892C88.1378 21.2573 88.0008 21.59 87.5549 21.7632H87.2271C86.7812 21.5793 86.6441 21.2437 86.6441 20.7675C86.6549 14.9906 86.6522 9.21107 86.6522 3.43421C86.6522 3.35575 86.6522 3.27457 86.6522 3.1961C86.6227 3.17446 86.5931 3.15011 86.5608 3.12845C86.5259 3.1961 86.5045 3.27728 86.4561 3.32869C84.7663 5.03876 83.0738 6.74609 81.3813 8.45616C81.1503 8.69156 80.895 8.83497 80.5565 8.74026C80.0461 8.59957 79.8419 8.01511 80.1535 7.58489C80.2046 7.51184 80.269 7.4496 80.3309 7.38467C82.4747 5.22545 84.6186 3.06352 86.7677 0.909718C86.8993 0.777136 87.074 0.690544 87.2271 0.582313C87.3372 0.582313 87.4473 0.582313 87.5549 0.582313L87.5576 0.576904Z" fill="white"/>
<path d="M87.6622 22.3336H87.1168L87.0121 22.2902C86.3889 22.0333 86.0719 21.5192 86.0719 20.7588C86.0798 16.1861 86.0798 11.6105 86.0798 7.03775V4.51866C85.4056 5.20053 84.7313 5.87968 84.0569 6.56153L81.7869 8.85604C81.3651 9.28084 80.9003 9.42967 80.4033 9.28896C79.9816 9.17262 79.6457 8.85874 79.5033 8.45287C79.3636 8.047 79.4308 7.59515 79.6887 7.24068C79.7666 7.13516 79.8526 7.04587 79.9224 6.97551L80.6397 6.25307C82.5471 4.33196 84.4519 2.41357 86.3619 0.495163C86.4963 0.359874 86.6413 0.267874 86.7703 0.1867C86.8133 0.159642 86.8563 0.132585 86.8992 0.102821L87.047 0H87.7482L87.9013 0.116347C87.9551 0.156933 88.0114 0.197521 88.0679 0.235401C88.2129 0.335516 88.3741 0.449158 88.5245 0.597976C89.8946 1.96982 91.2593 3.34707 92.6242 4.7216L94.8754 6.98634C95.3025 7.41656 95.445 7.88737 95.2998 8.38793C95.1764 8.81003 94.8566 9.14015 94.4483 9.27544C94.0427 9.41072 93.5913 9.33225 93.2474 9.06709C93.1668 9.00486 93.0916 8.93181 93.0164 8.85604C91.5684 7.39762 90.1365 5.95814 88.7099 4.51596V6.89976C88.7099 11.5266 88.7099 16.1535 88.7153 20.7804C88.7153 21.5408 88.3956 22.0494 87.7642 22.293L87.6649 22.3308L87.6622 22.3336ZM87.3533 21.1809H87.4366C87.5145 21.1348 87.5655 21.051 87.5655 20.7858C87.5575 16.1589 87.5602 11.5294 87.5602 6.90246V2.90872L88.4305 2.22415L88.7422 2.86543C88.7583 2.8979 88.7717 2.93037 88.7851 2.96554C90.4535 4.65124 92.1271 6.33695 93.8009 8.01995C93.8626 8.08219 93.8975 8.12007 93.9378 8.14982C93.997 8.19583 94.0533 8.19313 94.0909 8.17959C94.1204 8.16877 94.1769 8.14172 94.2012 8.06054C94.2145 8.01183 94.228 7.96584 94.0668 7.80349L91.8155 5.53875C90.4508 4.16421 89.0861 2.78966 87.716 1.41783C87.6408 1.34206 87.5305 1.26631 87.415 1.18514C87.4043 1.17702 87.3963 1.17161 87.3855 1.16349C87.2995 1.22031 87.2189 1.26902 87.1759 1.31502C85.2658 3.23071 83.3612 5.15182 81.4537 7.07023L80.7391 7.78997C80.6961 7.83326 80.6532 7.87385 80.6181 7.91984C80.5726 7.98477 80.5753 8.03888 80.5886 8.07406C80.6021 8.10925 80.6316 8.15794 80.7095 8.17959C80.7606 8.19313 80.8143 8.20665 80.9755 8.0443L83.2457 5.74979C84.1644 4.82171 85.0859 3.89092 86.0046 2.96013C86.0235 2.91684 86.0368 2.88708 86.0503 2.86002L86.3592 2.25122L87.2216 2.90331V7.04046C87.2216 11.6159 87.2216 16.1887 87.2162 20.7642C87.2162 21.0402 87.2727 21.1321 87.3533 21.1836V21.1809Z" fill="white"/>
<path d="M66.4084 52.5198C66.1508 52.3343 65.8643 52.1735 65.6356 51.9571C62.725 49.1743 59.8273 46.3854 56.9198 43.5996C56.6012 43.2935 56.3982 42.9596 56.5367 42.5113C56.7427 41.8465 57.5509 41.5899 58.124 42.0073C58.2206 42.0784 58.3075 42.1619 58.3912 42.2454C60.7095 44.4715 63.0309 46.6977 65.3459 48.927C65.4134 48.995 65.4392 49.1032 65.4843 49.1929C65.5261 49.1619 65.5713 49.1279 65.6131 49.097C65.6131 48.9919 65.6131 48.8868 65.6131 48.7847C65.6131 41.2158 65.6163 33.6436 65.6067 26.0747C65.6067 25.4625 65.7935 25.0266 66.4084 24.8008C66.5597 24.8008 66.7078 24.8008 66.8591 24.8008C67.4709 25.042 67.6609 25.4811 67.6609 26.1056C67.6479 33.6654 67.6511 41.2281 67.6511 48.7878C67.6511 48.8929 67.6511 48.995 67.6511 49.1001C67.693 49.131 67.735 49.1588 67.7736 49.1898C67.8218 49.1032 67.8476 48.995 67.9185 48.927C70.2367 46.6885 72.5613 44.456 74.8827 42.2175C75.2015 41.9114 75.5492 41.7228 76.016 41.8434C76.7179 42.0289 76.9949 42.7926 76.5698 43.3553C76.499 43.4481 76.4121 43.5347 76.3252 43.615C73.3823 46.4411 70.4395 49.2701 67.4902 52.09C67.3099 52.2632 67.0717 52.3776 66.8591 52.5198C66.7078 52.5198 66.5597 52.5198 66.4084 52.5198Z" fill="white"/>
<path d="M66.9872 52.5198H66.2725L66.1553 52.4359C66.0814 52.382 66.0044 52.3311 65.9273 52.277C65.7394 52.1512 65.5453 52.0194 65.3697 51.8486C63.592 50.1287 61.8173 48.4028 60.0427 46.677L57.0293 43.7466C56.8538 43.5757 56.3146 43.0544 56.5518 42.2723C56.6843 41.8349 57.0263 41.4904 57.4669 41.3495C57.9044 41.2087 58.3851 41.2896 58.7547 41.5652C58.8534 41.6372 58.9427 41.7241 59.029 41.808L59.5558 42.3203C61.4445 44.157 63.3331 45.9938 65.2188 47.8306V44.0672C65.2188 38.1974 65.2187 32.3305 65.2126 26.4608C65.2126 26.1522 65.2126 25.2173 66.2601 24.8278L66.3341 24.8008H66.9318L67.0119 24.8337C67.7112 25.1124 68.0502 25.6549 68.0502 26.4907C68.041 32.3246 68.041 38.1585 68.041 43.9922V47.8245C69.1224 46.7698 70.2008 45.7151 71.2821 44.6634L74.2153 41.8019C74.3909 41.6311 74.9208 41.1157 75.7249 41.3315C76.1809 41.4544 76.5415 41.778 76.6924 42.1974C76.8464 42.6229 76.7725 43.0814 76.4922 43.4559C76.4029 43.5757 76.298 43.6777 76.2148 43.7585L75.118 44.8252C72.6686 47.2103 70.2162 49.5924 67.7605 51.9714C67.6096 52.1183 67.434 52.2261 67.2799 52.319C67.2183 52.3579 67.1567 52.3939 67.0981 52.4329L66.9842 52.5107L66.9872 52.5198ZM66.5589 51.6688H66.716C66.7501 51.6479 66.7809 51.6299 66.8147 51.6088C66.941 51.531 67.0612 51.456 67.1443 51.3751C69.5999 48.9961 72.0493 46.614 74.4987 44.232L75.5956 43.1653C75.6633 43.0994 75.7311 43.0364 75.7865 42.9616C75.8945 42.8177 75.9253 42.6439 75.8668 42.4851C75.8081 42.3263 75.6726 42.2065 75.4939 42.1585C75.2999 42.1076 75.1211 42.1315 74.8377 42.4102L71.9046 45.2717C70.6597 46.4851 69.415 47.6987 68.1734 48.9122C68.1919 48.9003 68.1734 48.9272 68.1673 48.9451C68.1488 48.9842 68.1334 49.0231 68.1149 49.059L67.8776 49.5055L67.169 48.9901V43.9983C67.169 38.1644 67.169 32.3276 67.1782 26.4938C67.1782 25.9784 67.0273 25.7836 66.7592 25.6578H66.5066C66.2417 25.7716 66.0906 25.9604 66.0937 26.4668C66.1029 32.3366 66.1029 38.2033 66.1029 44.0731V48.9871L65.382 49.5294L65.1479 49.059C65.1294 49.0201 65.1109 48.9811 65.0955 48.9392C65.0894 48.9212 65.0801 48.9003 65.0709 48.8822C63.0497 46.9166 60.9946 44.9211 58.9427 42.9256L58.4436 42.4402C58.3573 42.3532 58.2957 42.2963 58.2309 42.2454C58.0861 42.1406 57.9106 42.1076 57.7442 42.1615C57.5747 42.2154 57.4484 42.3443 57.396 42.5151C57.3406 42.7008 57.3621 42.8656 57.6517 43.1473L60.665 46.0777C62.4397 47.8036 64.2112 49.5264 65.989 51.2493C66.1091 51.3662 66.2632 51.471 66.4265 51.579C66.4727 51.6088 66.5158 51.6388 66.562 51.6688H66.5589Z" fill="white"/>
</g>
<defs>
<clipPath id="clip0_2121_1243">
<rect width="163" height="53" fill="white"/>
</clipPath>
</defs>
</svg>
