<svg width="152" height="25" viewBox="0 0 152 25" fill="none" xmlns="http://www.w3.org/2000/svg">
<path d="M6.01601 5.28003V8.38403H10.256V12.8H6.01601V24.384H1.60001V12.8H1.2219e-05V8.38403H1.60001V5.28003C1.60001 4.30937 1.84001 3.42937 2.32001 2.64003C2.80001 1.84003 3.44001 1.20003 4.24001 0.720032C5.05068 0.240032 5.94135 3.24249e-05 6.91201 3.24249e-05C7.62668 3.24249e-05 8.33068 0.149366 9.02401 0.448032C9.71735 0.736032 10.336 1.18937 10.88 1.80803L7.71201 4.92803C7.63735 4.75736 7.52535 4.62937 7.37601 4.54403C7.22668 4.4587 7.07201 4.41603 6.91201 4.41603C6.66668 4.41603 6.45335 4.50137 6.27201 4.67203C6.10135 4.83203 6.01601 5.0347 6.01601 5.28003Z" fill="#02A7E8"/>
<path d="M12.805 24.384V0.384031H17.221V24.384H12.805ZM27.3425 24.8C25.8705 24.8 24.5265 24.4214 23.3105 23.664C22.1052 22.9067 21.1398 21.888 20.4145 20.608C19.6998 19.328 19.3425 17.9147 19.3425 16.368C19.3425 15.2054 19.5505 14.1174 19.9665 13.104C20.3825 12.08 20.9532 11.184 21.6785 10.416C22.4145 9.63737 23.2678 9.02937 24.2385 8.59203C25.2092 8.1547 26.2438 7.93603 27.3425 7.93603C28.6118 7.93603 29.7692 8.20803 30.8145 8.75203C31.8705 9.29603 32.7612 10.0374 33.4865 10.976C34.2225 11.9147 34.7452 12.976 35.0545 14.16C35.3745 15.344 35.4278 16.576 35.2145 17.856H24.1105C24.2492 18.3254 24.4625 18.752 24.7505 19.136C25.0492 19.5094 25.4118 19.808 25.8385 20.032C26.2758 20.256 26.7772 20.3734 27.3425 20.384C27.8972 20.3947 28.4092 20.2667 28.8785 20C29.3478 19.7334 29.7478 19.376 30.0785 18.928L34.5905 19.968C33.9398 21.3867 32.9692 22.5494 31.6785 23.456C30.3878 24.352 28.9425 24.8 27.3425 24.8ZM23.9505 14.592H30.7505C30.6118 14.0587 30.3772 13.5787 30.0465 13.152C29.7158 12.7254 29.3158 12.3894 28.8465 12.144C28.3878 11.8987 27.8865 11.776 27.3425 11.776C26.8092 11.776 26.3078 11.8987 25.8385 12.144C25.3798 12.3894 24.9852 12.7254 24.6545 13.152C24.3345 13.568 24.0998 14.048 23.9505 14.592ZM44.4963 24.8C43.0243 24.8 41.6803 24.4214 40.4643 23.664C39.2589 22.9067 38.2936 21.888 37.5683 20.608C36.8536 19.328 36.4963 17.9147 36.4963 16.368C36.4963 15.2054 36.7043 14.1174 37.1203 13.104C37.5363 12.08 38.1069 11.184 38.8323 10.416C39.5683 9.63737 40.4216 9.02937 41.3923 8.59203C42.3629 8.1547 43.3976 7.93603 44.4963 7.93603C45.7656 7.93603 46.9229 8.20803 47.9683 8.75203C49.0243 9.29603 49.9149 10.0374 50.6403 10.976C51.3763 11.9147 51.8989 12.976 52.2083 14.16C52.5283 15.344 52.5816 16.576 52.3683 17.856H41.2643C41.4029 18.3254 41.6163 18.752 41.9043 19.136C42.2029 19.5094 42.5656 19.808 42.9923 20.032C43.4296 20.256 43.9309 20.3734 44.4963 20.384C45.0509 20.3947 45.5629 20.2667 46.0323 20C46.5016 19.7334 46.9016 19.376 47.2323 18.928L51.7443 19.968C51.0936 21.3867 50.1229 22.5494 48.8323 23.456C47.5416 24.352 46.0963 24.8 44.4963 24.8ZM41.1043 14.592H47.9043C47.7656 14.0587 47.5309 13.5787 47.2003 13.152C46.8696 12.7254 46.4696 12.3894 46.0003 12.144C45.5416 11.8987 45.0403 11.776 44.4963 11.776C43.9629 11.776 43.4616 11.8987 42.9923 12.144C42.5336 12.3894 42.1389 12.7254 41.8083 13.152C41.4883 13.568 41.2536 14.048 41.1043 14.592ZM63.2828 12.8H60.4028V24.384H55.9868V12.8H53.7788V8.38403H55.9868V3.36003H60.4028V8.38403H63.2828V12.8ZM74.4685 24.384H70.1165L64.7725 8.38403H69.0925L72.3085 17.968L75.4925 8.38403H79.8125L82.9965 17.968L86.1965 8.38403H90.5325L85.1725 24.384H80.8365L77.6525 14.784L74.4685 24.384ZM103.505 8.38403H107.921V24.384H103.489L103.281 22.72C102.865 23.3387 102.332 23.84 101.681 24.224C101.031 24.608 100.268 24.8 99.3933 24.8C98.1986 24.8 97.0839 24.576 96.0493 24.128C95.0146 23.68 94.1026 23.0614 93.3133 22.272C92.5239 21.4827 91.9053 20.5707 91.4573 19.536C91.0199 18.4907 90.8013 17.3707 90.8013 16.176C90.8013 15.0347 91.0093 13.968 91.4253 12.976C91.8413 11.984 92.4279 11.1094 93.1853 10.352C93.9426 9.5947 94.8119 9.0027 95.7933 8.57603C96.7853 8.14937 97.8519 7.93603 98.9933 7.93603C99.9746 7.93603 100.855 8.14403 101.633 8.56003C102.423 8.97603 103.111 9.50403 103.697 10.144L103.505 8.38403ZM99.2813 20.56C100.007 20.56 100.663 20.3734 101.249 20C101.836 19.6267 102.3 19.1254 102.641 18.496C102.983 17.856 103.153 17.152 103.153 16.384C103.153 15.6054 102.983 14.9014 102.641 14.272C102.3 13.6427 101.836 13.1414 101.249 12.768C100.663 12.3947 100.007 12.208 99.2813 12.208C98.5453 12.208 97.8786 12.3947 97.2813 12.768C96.6839 13.1414 96.2093 13.648 95.8573 14.288C95.5053 14.9174 95.3293 15.616 95.3293 16.384C95.3293 17.152 95.5053 17.856 95.8573 18.496C96.2199 19.1254 96.6999 19.6267 97.2973 20C97.8946 20.3734 98.5559 20.56 99.2813 20.56ZM110.728 24.384V0.384031H115.144V24.384H110.728ZM118.538 24.384V0.384031H122.954V24.384H118.538ZM133.075 24.8C131.603 24.8 130.259 24.4214 129.043 23.664C127.838 22.9067 126.872 21.888 126.147 20.608C125.432 19.328 125.075 17.9147 125.075 16.368C125.075 15.2054 125.283 14.1174 125.699 13.104C126.115 12.08 126.686 11.184 127.411 10.416C128.147 9.63737 129 9.02937 129.971 8.59203C130.942 8.1547 131.976 7.93603 133.075 7.93603C134.344 7.93603 135.502 8.20803 136.547 8.75203C137.603 9.29603 138.494 10.0374 139.219 10.976C139.955 11.9147 140.478 12.976 140.787 14.16C141.107 15.344 141.16 16.576 140.947 17.856H129.843C129.982 18.3254 130.195 18.752 130.483 19.136C130.782 19.5094 131.144 19.808 131.571 20.032C132.008 20.256 132.51 20.3734 133.075 20.384C133.63 20.3947 134.142 20.2667 134.611 20C135.08 19.7334 135.48 19.376 135.811 18.928L140.323 19.968C139.672 21.3867 138.702 22.5494 137.411 23.456C136.12 24.352 134.675 24.8 133.075 24.8ZM129.683 14.592H136.483C136.344 14.0587 136.11 13.5787 135.779 13.152C135.448 12.7254 135.048 12.3894 134.579 12.144C134.12 11.8987 133.619 11.776 133.075 11.776C132.542 11.776 132.04 11.8987 131.571 12.144C131.112 12.3894 130.718 12.7254 130.387 13.152C130.067 13.568 129.832 14.048 129.683 14.592ZM151.862 12.8H148.982V24.384H144.566V12.8H142.358V8.38403H144.566V3.36003H148.982V8.38403H151.862V12.8Z" fill="white"/>
</svg>
