<svg width="32" height="32" viewBox="0 0 32 32" fill="none" xmlns="http://www.w3.org/2000/svg">
<path d="M16 3C23.732 3 30 9.268 30 17C29.9998 18.6759 29.5316 20.3185 28.6482 21.7427C27.7648 23.1669 26.5013 24.3161 25 25.061V25.5C25 26.4283 25.3687 27.3185 26.0251 27.9749C26.6815 28.6313 27.5717 29 28.5 29H29C29.2652 29 29.5196 29.1054 29.7071 29.2929C29.8946 29.4804 30 29.7348 30 30C30 30.2652 29.8946 30.5196 29.7071 30.7071C29.5196 30.8946 29.2652 31 29 31H28.5C27.0884 31.0002 25.7308 30.4577 24.7082 29.4847C23.6855 28.5117 23.0761 27.1828 23.006 25.773C22.348 25.9237 21.6751 25.9998 21 26H19.5C18.4122 26 17.3488 25.6774 16.4444 25.0731C15.5399 24.4687 14.8349 23.6098 14.4187 22.6048C14.0024 21.5998 13.8935 20.4939 14.1057 19.427C14.3179 18.3601 14.8417 17.3801 15.6109 16.6109C16.3801 15.8417 17.3601 15.3179 18.427 15.1057C19.4939 14.8935 20.5998 15.0024 21.6048 15.4187C22.6098 15.8349 23.4687 16.5399 24.0731 17.4444C24.6774 18.3488 25 19.4122 25 20.5V22.743C25.9264 22.0989 26.6832 21.2402 27.2056 20.2401C27.728 19.24 28.0006 18.1283 28 17C28 10.373 22.627 5 16 5C9.373 5 4 10.373 4 17V17.75C4 18.8772 4.44777 19.9582 5.2448 20.7552C6.04183 21.5522 7.12283 22 8.25 22H11C11.2652 22 11.5196 22.1054 11.7071 22.2929C11.8946 22.4804 12 22.7348 12 23C12 23.2652 11.8946 23.5196 11.7071 23.7071C11.5196 23.8946 11.2652 24 11 24H8.25C6.5924 24 5.00269 23.3415 3.83058 22.1694C2.65848 20.9973 2 19.4076 2 17.75V17C2 9.268 8.268 3 16 3ZM19.5 17C18.5717 17 17.6815 17.3687 17.0251 18.0251C16.3687 18.6815 16 19.5717 16 20.5C16 21.4283 16.3687 22.3185 17.0251 22.9749C17.6815 23.6313 18.5717 24 19.5 24H21C21.6773 23.9999 22.351 23.9016 23 23.708V20.5C23 19.5717 22.6313 18.6815 21.9749 18.0251C21.3185 17.3687 20.4283 17 19.5 17Z" fill="#99DFAF"/>
</svg>
