<svg width="103" height="24" viewBox="0 0 103 24" fill="none" xmlns="http://www.w3.org/2000/svg">
<path d="M36.3253 0.466347H40.0792V18.1601H36.3253V16.944C35.5285 17.9772 34.4484 18.4985 33.085 18.4985C32.3148 18.4985 31.6065 18.3522 30.9602 18.0504C30.3139 17.7486 29.7473 17.3372 29.2692 16.816C28.7911 16.2947 28.4104 15.6729 28.1448 14.9597C27.8792 14.2465 27.7464 13.4784 27.7464 12.6554C27.7464 11.8782 27.8704 11.1283 28.1271 10.4242C28.3839 9.72015 28.7469 9.1075 29.2072 8.57714C29.6765 8.05593 30.2342 7.6353 30.8894 7.33355C31.5445 7.03179 32.2617 6.87634 33.0496 6.87634C34.3688 6.87634 35.4666 7.35183 36.3342 8.30282V0.466347H36.3253ZM31.6242 12.6554C31.6242 13.012 31.6862 13.3412 31.8101 13.643C31.9341 13.9447 32.1023 14.219 32.3148 14.4385C32.5273 14.6671 32.784 14.8408 33.0762 14.9688C33.3683 15.0969 33.6959 15.1609 34.0323 15.1609C34.3687 15.1609 34.6786 15.0969 34.9708 14.9688C35.2629 14.8408 35.5197 14.6671 35.7322 14.4385C35.9446 14.2099 36.1129 13.9447 36.2457 13.6521C36.3785 13.3503 36.4404 13.0303 36.4404 12.692C36.4404 12.3536 36.3785 12.0245 36.2457 11.7227C36.1129 11.4209 35.9446 11.1466 35.7322 10.9272C35.5197 10.6986 35.2629 10.5248 34.9708 10.3968C34.6786 10.2688 34.3599 10.2048 34.0323 10.2048C33.7047 10.2048 33.386 10.2688 33.0939 10.3968C32.8017 10.5248 32.545 10.6986 32.3325 10.9272C32.12 11.1558 31.9429 11.4118 31.819 11.7044C31.6862 11.997 31.6242 12.3079 31.6242 12.6554Z" fill="white"/>
<path d="M56.2808 7.22382V5.20298C56.2808 4.4806 56.4313 3.80394 56.7235 3.16385C57.0156 2.53291 57.414 1.98426 57.9187 1.50877C58.4233 1.04242 59.0077 0.667517 59.6717 0.402339C60.3357 0.128017 61.0439 0 61.7876 0C62.5313 0 63.2396 0.137161 63.9036 0.402339C64.5676 0.676662 65.1519 1.04242 65.6565 1.50877C66.1612 1.97512 66.5596 2.53291 66.8517 3.16385C67.1439 3.79479 67.2944 4.47145 67.2944 5.20298V18.1601H63.5583V5.20298C63.5583 4.94694 63.514 4.70005 63.4255 4.47145C63.3369 4.23371 63.213 4.02339 63.0536 3.84051C62.8943 3.65763 62.7084 3.51132 62.4959 3.39245C62.2834 3.28272 62.0444 3.21871 61.7876 3.21871C61.5309 3.21871 61.283 3.27358 61.0616 3.39245C60.8403 3.50218 60.6544 3.64849 60.5039 3.83137C60.3534 4.00511 60.2294 4.21542 60.1409 4.46231C60.0524 4.70005 60.0081 4.95609 60.0081 5.21212V7.23296H62.1506V10.4517H60.0081V18.1693H56.272V10.4425H54.9263V7.22382H56.272H56.2808Z" fill="white"/>
<path d="M100.875 10.4425V18.1601H97.1391V10.4425H95.8996V7.22382H97.1391V3.94109H100.875V7.22382H103V10.4425H100.875Z" fill="white"/>
<path d="M76.3957 15.3803C76.0504 15.5175 75.6874 15.5815 75.3155 15.5815C74.7932 15.5815 74.324 15.4626 73.9079 15.234C73.6423 15.0877 73.4032 14.8866 73.2085 14.6488L80.9817 12.0976C80.6895 10.3694 80.0521 9.05263 79.0694 8.13822C78.0866 7.22382 76.8383 6.76661 75.3155 6.76661C74.1823 6.76661 73.1553 7.03179 72.2257 7.56215C71.305 8.0925 70.5613 8.7966 70.0124 9.68357C69.4635 10.5705 69.189 11.5673 69.189 12.6737C69.189 13.7801 69.4281 14.85 69.8973 15.7369C70.3665 16.6239 71.0482 17.3189 71.9513 17.8218C72.8543 18.3247 73.9521 18.5716 75.2447 18.5716C75.829 18.5716 76.4488 18.471 77.1039 18.2699C77.7591 18.0687 78.37 17.8035 78.9366 17.4652L77.4315 14.85C77.0951 15.0694 76.7498 15.2432 76.3957 15.3803ZM72.8455 10.8997C73.0491 10.4517 73.3412 10.1133 73.7219 9.86645C74.1026 9.61956 74.5453 9.50069 75.0499 9.50069C75.7139 9.50069 76.2097 9.66528 76.5462 9.99447C76.856 10.3054 77.0774 10.662 77.2102 11.0643L72.5444 12.692C72.5444 12.6188 72.5444 12.5457 72.5444 12.4725C72.5444 11.869 72.6418 11.3478 72.8455 10.8997Z" fill="#99DFAF"/>
<path d="M49.3398 15.3803C48.9945 15.5175 48.6315 15.5815 48.2597 15.5815C47.7373 15.5815 47.2681 15.4626 46.852 15.234C46.5864 15.0877 46.3473 14.8866 46.1526 14.6488L53.9258 12.0976C53.6337 10.3694 52.9962 9.05263 52.0135 8.13822C51.0308 7.22382 49.7824 6.76661 48.2597 6.76661C47.1264 6.76661 46.0995 7.03179 45.1699 7.56215C44.2491 8.0925 43.5054 8.7966 42.9565 9.68357C42.4076 10.5705 42.1331 11.5673 42.1331 12.6737C42.1331 13.7801 42.3722 14.85 42.8414 15.7369C43.3106 16.6239 43.9924 17.3189 44.8954 17.8218C45.7984 18.3247 46.8963 18.5716 48.1888 18.5716C48.7732 18.5716 49.3929 18.471 50.0481 18.2699C50.7032 18.0687 51.3141 17.8035 51.8807 17.4652L50.3756 14.85C50.0392 15.0694 49.6939 15.2432 49.3398 15.3803ZM45.7896 10.8997C45.9932 10.4517 46.2854 10.1133 46.6661 9.86645C47.0468 9.61956 47.4894 9.50069 47.9941 9.50069C48.6581 9.50069 49.1539 9.66528 49.4903 9.99447C49.8002 10.3054 50.0215 10.662 50.1543 11.0643L45.4886 12.692C45.4886 12.6188 45.4886 12.5457 45.4886 12.4725C45.4886 11.869 45.586 11.3478 45.7896 10.8997Z" fill="white"/>
<path d="M89.8439 15.3803C89.4986 15.5175 89.1356 15.5815 88.7638 15.5815C88.2415 15.5815 87.7722 15.4626 87.3561 15.234C87.0905 15.0877 86.8515 14.8866 86.6567 14.6488L94.43 12.0976C94.1378 10.3694 93.5003 9.05263 92.5176 8.13822C91.5349 7.22382 90.2866 6.76661 88.7638 6.76661C87.6306 6.76661 86.6036 7.03179 85.674 7.56215C84.7532 8.0925 84.0096 8.7966 83.4606 9.68357C82.9117 10.5705 82.6373 11.5673 82.6373 12.6737C82.6373 13.7801 82.8763 14.85 83.3456 15.7369C83.8148 16.6239 84.4965 17.3189 85.3995 17.8218C86.3026 18.3247 87.4004 18.5716 88.693 18.5716C89.2773 18.5716 89.897 18.471 90.5522 18.2699C91.2073 18.0687 91.8182 17.8035 92.3848 17.4652L90.8798 14.85C90.5433 15.0694 90.1981 15.2432 89.8439 15.3803ZM86.2937 10.8997C86.4973 10.4517 86.7895 10.1133 87.1702 9.86645C87.5509 9.61956 87.9936 9.50069 88.4982 9.50069C89.1622 9.50069 89.658 9.66528 89.9944 9.99447C90.3043 10.3054 90.5256 10.662 90.6584 11.0643L85.9927 12.692C85.9927 12.6188 85.9927 12.5457 85.9927 12.4725C85.9927 11.869 86.0901 11.3478 86.2937 10.8997Z" fill="#99DFAF"/>
<path d="M13.6253 12.6371C13.6253 11.5124 13.8821 10.5157 14.3956 9.61957C14.9091 8.73259 15.6262 8.03764 16.5469 7.52557C17.4677 7.0135 18.5301 6.75747 19.7341 6.75747C20.9382 6.75747 22.0006 7.0135 22.8948 7.52557C23.789 8.03764 24.4707 8.73259 24.9488 9.61957C25.4269 10.5065 25.6659 11.5124 25.6659 12.6371C25.6659 13.7618 25.4269 14.7677 24.9488 15.6638C24.4707 16.5599 23.789 17.264 22.8948 17.7852C22.0006 18.3064 20.9293 18.5625 19.681 18.5625C18.5124 18.5625 17.4765 18.3247 16.5558 17.8584C15.6439 17.392 14.9268 16.7154 14.4044 15.8284C13.8821 14.9414 13.6253 13.8807 13.6253 12.6371ZM17.0516 12.6645C17.0516 13.2315 17.1667 13.7527 17.388 14.2099C17.6182 14.6671 17.9192 15.0329 18.3087 15.298C18.6983 15.5632 19.1321 15.7004 19.619 15.7004C20.1502 15.7004 20.6195 15.5632 21.009 15.298C21.3986 15.0329 21.6996 14.6671 21.9121 14.2099C22.1245 13.7527 22.2308 13.2315 22.2308 12.6645C22.2308 12.0976 22.1245 11.5581 21.9121 11.11C21.6996 10.662 21.3986 10.2962 21.009 10.031C20.6195 9.76587 20.1591 9.62871 19.619 9.62871C19.1321 9.62871 18.6983 9.76587 18.3087 10.031C17.9192 10.2962 17.6093 10.662 17.388 11.11C17.1578 11.5581 17.0516 12.0793 17.0516 12.6645Z" fill="white"/>
<path d="M3.73612 6.99522H0V18.1601H3.73612V12.3171V10.6437V10.0585V6.99522Z" fill="#99DFAF"/>
<path d="M10.9959 9.65614C10.8896 9.19894 10.6772 8.78745 10.3761 8.42169C10.0043 7.96449 9.55278 7.61701 9.02157 7.37012C8.49037 7.12323 7.85293 6.99522 7.10925 6.99522H5.56876V10.0676H5.68386C5.91404 10.0676 6.13538 10.1042 6.34786 10.1774C6.55149 10.2505 6.73741 10.3694 6.90562 10.5431C7.1004 10.7443 7.2332 11.0095 7.30402 11.3387C7.3837 11.677 7.41912 12.1068 7.41912 12.6463V18.1693H11.1552V11.2198C11.1552 10.6346 11.1021 10.1225 10.987 9.66529L10.9959 9.65614Z" fill="white"/>
<path d="M72.509 23.6009L99.7685 23.6009C100.526 23.6009 101.141 22.9663 101.141 22.1835C101.141 21.4008 100.526 20.7662 99.7685 20.7662L72.509 20.7662C71.7512 20.7662 71.1368 21.4008 71.1368 22.1835C71.1368 22.9663 71.7512 23.6009 72.509 23.6009Z" fill="#99DFAF"/>
<path d="M65.3467 23.6009H68.649C69.4069 23.6009 70.0212 22.9663 70.0212 22.1835C70.0212 21.4008 69.4069 20.7662 68.649 20.7662H65.3467C64.5888 20.7662 63.9744 21.4008 63.9744 22.1835C63.9744 22.9663 64.5888 23.6009 65.3467 23.6009Z" fill="#99DFAF"/>
<path d="M56.8297 22.339L59.5123 23.9392C59.8045 24.1129 60.1763 23.8935 60.1763 23.546V20.8393C60.1763 20.4919 59.8045 20.2724 59.5123 20.4462L56.8297 22.0464C56.7235 22.1104 56.7235 22.275 56.8297 22.339Z" fill="#99DFAF"/>
<path d="M62.3613 21.602L62.8496 22.1064C62.8935 22.1516 62.8935 22.2292 62.8496 22.2745L62.3613 22.7788C62.0483 23.1021 61.5475 23.1021 61.2345 22.7788C60.9215 22.4555 60.9215 21.9382 61.2345 21.615C61.5475 21.2917 62.0483 21.2917 62.3613 21.615L62.3613 21.602Z" fill="#99DFAF"/>
</svg>
