<svg width="135" height="32" viewBox="0 0 135 32" fill="none" xmlns="http://www.w3.org/2000/svg">
<path d="M14.864 13.824V24H10.448V15.04C10.448 14.4747 10.3093 13.968 10.032 13.52C9.76532 13.0613 9.40265 12.6987 8.94399 12.432C8.49599 12.1653 7.99465 12.032 7.43999 12.032C6.88532 12.032 6.37865 12.1653 5.91999 12.432C5.46132 12.6987 5.09865 13.0613 4.83199 13.52C4.56532 13.968 4.43199 14.4747 4.43199 15.04V24H0.0159867L-1.33514e-05 8H4.41599L4.43199 9.184C4.96532 8.672 5.58932 8.272 6.30399 7.984C7.02932 7.696 7.79199 7.552 8.59199 7.552C9.75465 7.552 10.8053 7.83467 11.744 8.4C12.6933 8.96533 13.4507 9.72267 14.016 10.672C14.5813 11.6107 14.864 12.6613 14.864 13.824Z" fill="url(#paint0_linear_2121_1151)"/>
<path d="M24.35 24.416C22.878 24.416 21.534 24.0373 20.318 23.28C19.1127 22.5227 18.1473 21.5093 17.422 20.24C16.7073 18.96 16.35 17.5467 16.35 16C16.35 14.8267 16.558 13.7333 16.974 12.72C17.39 11.696 17.9607 10.8 18.686 10.032C19.422 9.25333 20.2753 8.64533 21.246 8.208C22.2167 7.77067 23.2513 7.552 24.35 7.552C25.822 7.552 27.1607 7.93067 28.366 8.688C29.582 9.44533 30.5473 10.464 31.262 11.744C31.9873 13.024 32.35 14.4427 32.35 16C32.35 17.1627 32.142 18.2507 31.726 19.264C31.31 20.2773 30.734 21.1733 29.998 21.952C29.2727 22.72 28.4247 23.3227 27.454 23.76C26.494 24.1973 25.4593 24.416 24.35 24.416ZM24.35 20C25.0327 20 25.646 19.8187 26.19 19.456C26.734 19.0827 27.1607 18.592 27.47 17.984C27.7793 17.376 27.934 16.7147 27.934 16C27.934 15.264 27.7687 14.592 27.438 13.984C27.118 13.3653 26.686 12.8747 26.142 12.512C25.598 12.1493 25.0007 11.968 24.35 11.968C23.678 11.968 23.07 12.1547 22.526 12.528C21.982 12.9013 21.55 13.392 21.23 14C20.9207 14.608 20.766 15.2747 20.766 16C20.766 16.7573 20.926 17.44 21.246 18.048C21.5767 18.6453 22.014 19.12 22.558 19.472C23.102 19.824 23.6993 20 24.35 20ZM46.2237 -1.90735e-06H50.6397V24H46.2237V22.304C45.7331 22.9227 45.1251 23.4293 44.3997 23.824C43.6744 24.2187 42.8477 24.416 41.9197 24.416C40.7571 24.416 39.6691 24.1973 38.6557 23.76C37.6424 23.3227 36.7464 22.72 35.9677 21.952C35.1997 21.1733 34.5971 20.2773 34.1597 19.264C33.7224 18.2507 33.5037 17.1627 33.5037 16C33.5037 14.8373 33.7224 13.7493 34.1597 12.736C34.5971 11.7227 35.1997 10.832 35.9677 10.064C36.7464 9.28533 37.6424 8.67733 38.6557 8.24C39.6691 7.80267 40.7571 7.584 41.9197 7.584C42.8477 7.584 43.6744 7.78133 44.3997 8.176C45.1251 8.56 45.7331 9.06667 46.2237 9.696V-1.90735e-06ZM41.9837 20.176C42.7091 20.176 43.3651 19.9893 43.9517 19.616C44.5384 19.2427 45.0024 18.7413 45.3437 18.112C45.6851 17.472 45.8557 16.768 45.8557 16C45.8557 15.2213 45.6851 14.5173 45.3437 13.888C45.0024 13.2587 44.5384 12.7573 43.9517 12.384C43.3651 12.0107 42.7091 11.824 41.9837 11.824C41.2477 11.824 40.5811 12.0107 39.9837 12.384C39.3864 12.7573 38.9117 13.264 38.5597 13.904C38.2077 14.5333 38.0317 15.232 38.0317 16C38.0317 16.768 38.2077 17.472 38.5597 18.112C38.9224 18.7413 39.4024 19.2427 39.9997 19.616C40.5971 19.9893 41.2584 20.176 41.9837 20.176ZM60.7825 24.416C59.3105 24.416 57.9665 24.0373 56.7505 23.28C55.5452 22.5227 54.5798 21.504 53.8545 20.224C53.1398 18.944 52.7825 17.5307 52.7825 15.984C52.7825 14.8213 52.9905 13.7333 53.4065 12.72C53.8225 11.696 54.3932 10.8 55.1185 10.032C55.8545 9.25333 56.7078 8.64533 57.6785 8.208C58.6492 7.77067 59.6838 7.552 60.7825 7.552C62.0518 7.552 63.2092 7.824 64.2545 8.368C65.3105 8.912 66.2012 9.65333 66.9265 10.592C67.6625 11.5307 68.1852 12.592 68.4945 13.776C68.8145 14.96 68.8678 16.192 68.6545 17.472H57.5505C57.6892 17.9413 57.9025 18.368 58.1905 18.752C58.4892 19.1253 58.8518 19.424 59.2785 19.648C59.7158 19.872 60.2172 19.9893 60.7825 20C61.3372 20.0107 61.8492 19.8827 62.3185 19.616C62.7878 19.3493 63.1878 18.992 63.5185 18.544L68.0305 19.584C67.3798 21.0027 66.4092 22.1653 65.1185 23.072C63.8278 23.968 62.3825 24.416 60.7825 24.416ZM57.3905 14.208H64.1905C64.0518 13.6747 63.8172 13.1947 63.4865 12.768C63.1558 12.3413 62.7558 12.0053 62.2865 11.76C61.8278 11.5147 61.3265 11.392 60.7825 11.392C60.2492 11.392 59.7478 11.5147 59.2785 11.76C58.8198 12.0053 58.4252 12.3413 58.0945 12.768C57.7745 13.184 57.5398 13.664 57.3905 14.208ZM82.5122 8H86.9282V24.224C86.9282 25.408 86.6882 26.4747 86.2082 27.424C85.7282 28.384 85.0722 29.2053 84.2402 29.888C83.4189 30.5707 82.4696 31.0933 81.3922 31.456C80.3256 31.8187 79.1949 32 78.0002 32C76.8696 32 75.7869 31.776 74.7522 31.328C73.7176 30.8907 72.8002 30.2827 72.0002 29.504C71.2002 28.7253 70.5762 27.8293 70.1282 26.816L74.1602 24.976C74.3842 25.5093 74.6882 25.968 75.0722 26.352C75.4669 26.736 75.9149 27.0293 76.4162 27.232C76.9282 27.4453 77.4562 27.552 78.0002 27.552C78.5869 27.552 79.1469 27.4827 79.6802 27.344C80.2242 27.2053 80.7096 26.9973 81.1362 26.72C81.5629 26.4427 81.8989 26.096 82.1442 25.68C82.3896 25.264 82.5122 24.7787 82.5122 24.224V22.368C82.0216 22.976 81.4242 23.472 80.7202 23.856C80.0269 24.2293 79.2216 24.416 78.3042 24.416C77.1522 24.416 76.0696 24.1973 75.0562 23.76C74.0536 23.3227 73.1682 22.72 72.4002 21.952C71.6322 21.1733 71.0296 20.2773 70.5922 19.264C70.1549 18.2507 69.9362 17.1627 69.9362 16C69.9362 14.8373 70.1549 13.7493 70.5922 12.736C71.0296 11.7227 71.6322 10.832 72.4002 10.064C73.1682 9.28533 74.0536 8.67733 75.0562 8.24C76.0696 7.80267 77.1522 7.584 78.3042 7.584C79.2216 7.584 80.0269 7.776 80.7202 8.16C81.4242 8.53333 82.0216 9.024 82.5122 9.632V8ZM78.3682 20.176C79.0936 20.176 79.7496 19.9893 80.3362 19.616C80.9229 19.232 81.3816 18.7253 81.7122 18.096C82.0536 17.4667 82.2242 16.768 82.2242 16C82.2242 15.232 82.0536 14.5333 81.7122 13.904C81.3816 13.264 80.9229 12.7573 80.3362 12.384C79.7496 12.0107 79.0936 11.824 78.3682 11.824C77.6536 11.824 76.9976 12.0107 76.4002 12.384C75.8136 12.7573 75.3442 13.264 74.9922 13.904C74.6402 14.5333 74.4642 15.232 74.4642 16C74.4642 16.768 74.6402 17.472 74.9922 18.112C75.3442 18.7413 75.8136 19.2427 76.4002 19.616C76.9976 19.9893 77.6536 20.176 78.3682 20.176ZM101.638 8H106.054V24H101.622L101.414 22.336C100.998 22.9547 100.464 23.456 99.8137 23.84C99.1631 24.224 98.4004 24.416 97.5257 24.416C96.3311 24.416 95.2164 24.192 94.1817 23.744C93.1471 23.296 92.2351 22.6773 91.4457 21.888C90.6564 21.0987 90.0377 20.1867 89.5897 19.152C89.1524 18.1067 88.9337 16.9867 88.9337 15.792C88.9337 14.6507 89.1417 13.584 89.5577 12.592C89.9737 11.6 90.5604 10.7253 91.3177 9.968C92.0751 9.21067 92.9444 8.61867 93.9257 8.192C94.9177 7.76533 95.9844 7.552 97.1257 7.552C98.1071 7.552 98.9871 7.76 99.7657 8.176C100.555 8.592 101.243 9.12 101.83 9.76L101.638 8ZM97.4137 20.176C98.1391 20.176 98.7951 19.9893 99.3817 19.616C99.9684 19.2427 100.432 18.7413 100.774 18.112C101.115 17.472 101.286 16.768 101.286 16C101.286 15.2213 101.115 14.5173 100.774 13.888C100.432 13.2587 99.9684 12.7573 99.3817 12.384C98.7951 12.0107 98.1391 11.824 97.4137 11.824C96.6777 11.824 96.0111 12.0107 95.4137 12.384C94.8164 12.7573 94.3417 13.264 93.9897 13.904C93.6377 14.5333 93.4617 15.232 93.4617 16C93.4617 16.768 93.6377 17.472 93.9897 18.112C94.3524 18.7413 94.8324 19.2427 95.4297 19.616C96.0271 19.9893 96.6884 20.176 97.4137 20.176ZM117.533 12.416H114.653V24H110.237V12.416H108.029V8H110.237V2.976H114.653V8H117.533V12.416ZM126.679 24.416C125.207 24.416 123.863 24.0373 122.647 23.28C121.441 22.5227 120.476 21.504 119.751 20.224C119.036 18.944 118.679 17.5307 118.679 15.984C118.679 14.8213 118.887 13.7333 119.303 12.72C119.719 11.696 120.289 10.8 121.015 10.032C121.751 9.25333 122.604 8.64533 123.575 8.208C124.545 7.77067 125.58 7.552 126.679 7.552C127.948 7.552 129.105 7.824 130.151 8.368C131.207 8.912 132.097 9.65333 132.823 10.592C133.559 11.5307 134.081 12.592 134.391 13.776C134.711 14.96 134.764 16.192 134.551 17.472H123.447C123.585 17.9413 123.799 18.368 124.087 18.752C124.385 19.1253 124.748 19.424 125.175 19.648C125.612 19.872 126.113 19.9893 126.679 20C127.233 20.0107 127.745 19.8827 128.215 19.616C128.684 19.3493 129.084 18.992 129.415 18.544L133.927 19.584C133.276 21.0027 132.305 22.1653 131.015 23.072C129.724 23.968 128.279 24.416 126.679 24.416ZM123.287 14.208H130.087C129.948 13.6747 129.713 13.1947 129.383 12.768C129.052 12.3413 128.652 12.0053 128.183 11.76C127.724 11.5147 127.223 11.392 126.679 11.392C126.145 11.392 125.644 11.5147 125.175 11.76C124.716 12.0053 124.321 12.3413 123.991 12.768C123.671 13.184 123.436 13.664 123.287 14.208Z" fill="white"/>
<defs>
<linearGradient id="paint0_linear_2121_1151" x1="83.08" y1="-6" x2="83.08" y2="32" gradientUnits="userSpaceOnUse">
<stop stop-color="#99DFAF"/>
<stop offset="1" stop-color="#5BC48A"/>
</linearGradient>
</defs>
</svg>
