<svg width="32" height="32" viewBox="0 0 32 32" fill="none" xmlns="http://www.w3.org/2000/svg">
<path fill-rule="evenodd" clip-rule="evenodd" d="M16 5.464L10.11 8.864L16 12.27L21.89 8.868L16 5.464ZM24.89 7.132L16 2L7.11001 7.132L4.25001 5.482C4.07925 5.37529 3.88877 5.30405 3.6899 5.27252C3.49103 5.241 3.28784 5.24983 3.09246 5.29851C2.89708 5.34718 2.7135 5.43469 2.55265 5.55582C2.39181 5.67695 2.25701 5.82923 2.15627 6.00357C2.05553 6.17792 1.99093 6.37076 1.9663 6.5706C1.94168 6.77044 1.95755 6.97319 2.01295 7.16677C2.06836 7.36036 2.16217 7.5408 2.2888 7.69735C2.41543 7.8539 2.57228 7.98336 2.75001 8.078L5.60801 9.73V20L14.5 25.134V28.5C14.5 28.8978 14.658 29.2794 14.9393 29.5607C15.2206 29.842 15.6022 30 16 30C16.3978 30 16.7794 29.842 17.0607 29.5607C17.342 29.2794 17.5 28.8978 17.5 28.5V25.134L26.392 20V9.73L29.252 8.078C29.5866 7.874 29.828 7.5472 29.9247 7.16748C30.0214 6.78776 29.9657 6.38527 29.7694 6.04611C29.5732 5.70695 29.252 5.45804 28.8746 5.35262C28.4973 5.2472 28.0936 5.29364 27.75 5.482L24.89 7.132ZM23.392 11.462L17.5 14.866V21.67L23.392 18.268V11.462ZM8.60801 18.268L14.5 21.668V14.868L8.60801 11.46V18.268Z" fill="#99DFAF"/>
</svg>
