<svg width="32" height="32" viewBox="0 0 32 32" fill="none" xmlns="http://www.w3.org/2000/svg">
<path d="M9.15533 12.98C9.23667 13.76 9.73533 14.4073 10.4467 14.7347C11.9247 15.414 14.52 16.5 16 16.5C17.48 16.5 20.0753 15.4133 21.5533 14.7347C22.2647 14.408 22.7633 13.7593 22.8447 12.98C22.924 12.2153 23 11.072 23 9.5C23 7.928 22.924 6.78467 22.8447 6.02C22.7633 5.24 22.2647 4.59267 21.5527 4.26533C20.0753 3.586 17.4807 2.5 16 2.5C14.52 2.5 11.9247 3.58667 10.4467 4.26533C9.73533 4.592 9.23667 5.24067 9.15533 6.02C9.076 6.78467 9 7.928 9 9.5C9 11.072 9.076 12.2153 9.15533 12.98Z" stroke="#99DFAF" stroke-width="1.5" stroke-linejoin="round"/>
<path d="M9 5.30005C9 5.30005 14.5867 8.10005 16 8.10005C17.4133 8.10005 23 5.30005 23 5.30005" stroke="#99DFAF" stroke-width="1.5" stroke-linejoin="round"/>
<path d="M16 8.1001V16.5001" stroke="#99DFAF" stroke-width="1.5" stroke-linecap="round" stroke-linejoin="round"/>
<path d="M2.15533 25.1467C2.23667 25.9267 2.73533 26.5741 3.44733 26.9014C4.92467 27.5807 7.52 28.6667 9 28.6667C10.48 28.6667 13.0753 27.5801 14.5533 26.9014C15.2647 26.5747 15.7633 25.9261 15.8447 25.1467C15.924 24.3821 16 23.2387 16 21.6667C16 20.0947 15.924 18.9514 15.8447 18.1867C15.7633 17.4067 15.2647 16.7594 14.5533 16.4321C13.0753 15.7527 10.48 14.6667 9 14.6667C7.52 14.6667 4.92467 15.7534 3.44667 16.4321C2.73533 16.7587 2.23667 17.4074 2.15533 18.1867C2.076 18.9514 2 20.0947 2 21.6667C2 23.2387 2.076 24.3821 2.15533 25.1467Z" stroke="#99DFAF" stroke-width="1.5" stroke-linejoin="round"/>
<path d="M2 17.4666C2 17.4666 7.58667 20.2666 9 20.2666C10.4133 20.2666 16 17.4666 16 17.4666" stroke="#99DFAF" stroke-width="1.5" stroke-linejoin="round"/>
<path d="M9 20.2666V28.6666" stroke="#99DFAF" stroke-width="1.5" stroke-linecap="round" stroke-linejoin="round"/>
<path d="M16.1553 25.1467C16.2367 25.9267 16.7353 26.5741 17.4467 26.9014C18.9253 27.5807 21.52 28.6667 23 28.6667C24.48 28.6667 27.0753 27.5801 28.5533 26.9014C29.2647 26.5747 29.7633 25.9261 29.8447 25.1467C29.924 24.3821 30 23.2387 30 21.6667C30 20.0947 29.924 18.9514 29.8447 18.1867C29.7633 17.4067 29.2647 16.7594 28.5527 16.4321C27.0753 15.7527 24.4813 14.6667 23 14.6667C21.52 14.6667 18.9247 15.7534 17.4467 16.4321C16.7353 16.7587 16.2367 17.4074 16.1553 18.1867C16.076 18.9514 16 20.0947 16 21.6667C16 23.2387 16.076 24.3821 16.1553 25.1467Z" stroke="#99DFAF" stroke-width="1.5" stroke-linejoin="round"/>
<path d="M16 17.4666C16 17.4666 21.5867 20.2666 23 20.2666C24.4133 20.2666 30 17.4666 30 17.4666" stroke="#99DFAF" stroke-width="1.5" stroke-linejoin="round"/>
<path d="M23 20.2666V28.6666" stroke="#99DFAF" stroke-width="1.5" stroke-linecap="round" stroke-linejoin="round"/>
</svg>
